<svg width="146" height="79" viewBox="0 0 146 79" fill="none" xmlns="http://www.w3.org/2000/svg">
<path d="M3.375 55.4844C4.46875 55.4844 5.15625 55.9062 5.4375 56.75C5.71875 57.5938 5.85938 58.9844 5.85938 60.9219C5.85938 62.8594 6.125 64.6719 6.65625 66.3594C7.1875 68.0469 7.92188 69.4688 8.85938 70.625C10.7656 72.9375 13.4062 74.0938 16.7812 74.0938C20.1562 74.0938 22.8438 72.8594 24.8438 70.3906C26.8438 67.8906 27.8438 64.3125 27.8438 59.6562C27.8438 53.4375 25.2031 47.9062 19.9219 43.0625C18.4219 41.6875 16.875 40.3281 15.2812 38.9844C13.7188 37.6406 12.1875 36.25 10.6875 34.8125C9.1875 33.375 7.84375 31.7812 6.65625 30.0312C4.0625 26.1875 2.76562 21.8125 2.76562 16.9062C2.76562 11.875 4.25 7.8125 7.21875 4.71875C10.1562 1.65625 13.8438 0.125 18.2812 0.125C22.0938 0.125 25.2188 1.40625 27.6562 3.96875C30.375 6.90625 31.625 10.9687 31.4062 16.1562C31.375 16.4062 31.3594 16.6719 31.3594 16.9531C31.3906 17.2344 31.3594 17.7656 31.2656 18.5469C31.2031 19.3281 30.875 20.0312 30.2812 20.6562C29.7188 21.25 29.0938 21.5469 28.4062 21.5469C27.75 21.5469 27.1875 21.25 26.7188 20.6562C26.25 20.0312 26.0938 19.2188 26.25 18.2188C26.6562 15.9375 26.8594 14.2188 26.8594 13.0625C26.8594 11.875 26.6406 10.75 26.2031 9.6875C25.7969 8.625 25.2031 7.6875 24.4219 6.875C22.7344 5.15625 20.5469 4.29688 17.8594 4.29688C14.8906 4.29688 12.4688 5.3125 10.5938 7.34375C8.53125 9.59375 7.5 12.3594 7.5 15.6406C7.5 18.9219 7.85938 21.5781 8.57812 23.6094C9.29688 25.6094 10.2344 27.4219 11.3906 29.0469C12.5781 30.6719 13.9219 32.1562 15.4219 33.5C16.9219 34.8438 18.4375 36.1719 19.9688 37.4844C21.5312 38.7969 23.0625 40.1562 24.5625 41.5625C26.0625 42.9375 27.4062 44.4688 28.5938 46.1562C31.1875 49.9688 32.4844 54.3594 32.4844 59.3281C32.4844 65.1406 30.9844 69.7812 27.9844 73.25C25.0156 76.6875 21.0469 78.4062 16.0781 78.4062C11.4531 78.4062 7.6875 76.625 4.78125 73.0625C2.03125 69.7188 0.65625 65.9531 0.65625 61.7656C0.65625 57.5781 1.5625 55.4844 3.375 55.4844ZM59.25 1.01562C60 1.01562 60.6875 1.32813 61.3125 1.95312C61.9375 2.57812 62.4219 3.89062 62.7656 5.89062C63.1406 7.85938 63.6875 10.6875 64.4062 14.375C65.1562 18.0625 65.9844 22 66.8906 26.1875C67.7969 30.375 68.75 34.7031 69.75 39.1719C70.75 43.6094 71.75 47.9219 72.75 52.1094C75.1562 61.9219 77.0312 69.0938 78.375 73.625C78.6875 74.7812 78.5938 75.7031 78.0938 76.3906C77.625 77.0781 77.0938 77.4219 76.5 77.4219C75.9062 77.4219 75.3594 77.25 74.8594 76.9062C74.3906 76.5625 73.9688 75.5469 73.5938 73.8594C73.2188 72.1719 72.6094 69.4375 71.7656 65.6562C70.9219 61.875 70.0156 57.8125 69.0469 53.4688C69.0156 53.2812 68.9844 53.1094 68.9531 52.9531C66.8281 52.8594 63.8281 52.8125 59.9531 52.8125C55.3906 52.8125 51.9062 52.875 49.5 53C49.4688 53.1875 49.4375 53.375 49.4062 53.5625C47.5 62.75 46.0938 69.8594 45.1875 74.8906C44.875 76.4844 44.0469 77.2812 42.7031 77.2812C41.2969 77.2812 40.4375 76.5938 40.125 75.2188C40.0312 74.8125 40.125 74.1719 40.4062 73.2969C40.6875 72.4219 41.0938 70.9219 41.625 68.7969C42.1875 66.6406 42.7812 64.1875 43.4062 61.4375C44.0625 58.6562 44.75 55.625 45.4688 52.3438C46.1875 49.0625 46.9219 45.6875 47.6719 42.2188C48.4219 38.75 49.1719 35.2656 49.9219 31.7656C50.6719 28.2344 51.3906 24.8281 52.0781 21.5469C52.7656 18.2656 53.4062 15.1875 54 12.3125C54.625 9.4375 55.125 7.15625 55.5 5.46875C56.0938 2.5 57.3438 1.01562 59.25 1.01562ZM50.3906 48.6406C52.7656 48.7656 55.9688 48.8281 60 48.8281C63.3438 48.8281 66.0156 48.7812 68.0156 48.6875C67.3594 45.8438 66.7031 42.9219 66.0469 39.9219C65.0156 35.2656 64.0312 30.75 63.0938 26.375C61.5312 19.2188 60.1875 12.9375 59.0625 7.53125C58.3438 11.125 57.3125 16.0156 55.9688 22.2031C54.2188 30.4531 52.8906 36.7344 51.9844 41.0469C51.4531 43.6406 50.9219 46.1719 50.3906 48.6406ZM89.7656 56.0469L89.7188 33.5938C89.7188 23.0938 89.3438 13.125 88.5938 3.6875C88.5 2.28125 88.9531 1.375 89.9531 0.96875C90.5156 0.71875 91.1719 0.65625 91.9219 0.78125C93.2344 1 94.8281 1.10938 96.7031 1.10938C98.5781 1.10938 99.9375 1.10938 100.781 1.10938C101.656 1.07812 102.531 1.04688 103.406 1.01562C105.594 0.921875 107.078 0.828125 107.859 0.734375C108.672 0.640625 109.281 0.65625 109.688 0.78125C110.125 0.90625 110.5 1.09375 110.812 1.34375C111.438 1.90625 111.75 2.54688 111.75 3.26562C111.75 3.95313 111.469 4.53125 110.906 5C110.344 5.46875 109.562 5.6875 108.562 5.65625C107.594 5.59375 106.516 5.53125 105.328 5.46875C104.141 5.375 102.859 5.3125 101.484 5.28125C98.6094 5.1875 96.1719 5.20312 94.1719 5.32812V13.4375C94.1719 16.625 94.1562 19.875 94.125 23.1875C94.0938 32.0312 94.0781 38.5312 94.0781 42.6875C98.3594 42.6875 101.719 42.5625 104.156 42.3125C106.75 42.0312 108.047 42.7031 108.047 44.3281C108.047 45.8906 106.25 46.6875 102.656 46.7188C101.75 46.75 101.031 46.7656 100.5 46.7656L96.75 46.7188H94.0781L94.5 74.1406C94.5 74.9531 94.2812 75.6406 93.8438 76.2031C93.4375 76.7344 92.9844 77 92.4844 77C91.9844 77 91.5781 76.9688 91.2656 76.9062C90.9531 76.8125 90.6562 76.6562 90.375 76.4375C89.7188 75.875 89.4219 75.1094 89.4844 74.1406C89.6719 70.5469 89.7656 64.5156 89.7656 56.0469ZM122.438 51.2656L122.531 67.9062C122.531 69.4062 122.531 70.6875 122.531 71.75C122.562 72.2188 122.578 72.625 122.578 72.9688C130.453 72.9688 135.688 72.8438 138.281 72.5938C140.969 72.3125 142.531 72.2344 142.969 72.3594C143.406 72.4844 143.781 72.6875 144.094 72.9688C144.719 73.5312 145.031 74.1562 145.031 74.8438C145.031 75.5 144.734 76.0781 144.141 76.5781C143.547 77.0469 142.719 77.25 141.656 77.1875C136.531 76.7812 131.906 76.7188 127.781 77C123.656 77.25 121.344 77.4062 120.844 77.4688C120.344 77.5625 119.891 77.5625 119.484 77.4688C119.109 77.4062 118.766 77.25 118.453 77C117.734 76.4688 117.406 75.6875 117.469 74.6562C117.938 65.625 118.172 55.6406 118.172 44.7031C118.172 33.7344 118.172 26.8438 118.172 24.0312C118.203 21.1875 118.219 18.5938 118.219 16.25C118.156 11.2188 118.047 7.67188 117.891 5.60938C117.734 3.51562 117.766 2.26563 117.984 1.85938C118.234 1.45312 118.531 1.15625 118.875 0.96875C119.344 0.75 119.938 0.703125 120.656 0.828125C121.969 1.04688 123.703 1.15625 125.859 1.15625C130.016 1.15625 132.844 1.07812 134.344 0.921875C135.875 0.734375 136.859 0.71875 137.297 0.875C137.734 1 138.094 1.1875 138.375 1.4375C139 1.9375 139.312 2.54688 139.312 3.26562C139.312 3.98437 139.031 4.57812 138.469 5.04688C137.906 5.51562 137.141 5.73438 136.172 5.70312C135.203 5.64063 134.172 5.57812 133.078 5.51562C131.984 5.42188 130.812 5.34375 129.562 5.28125C126.938 5.1875 124.656 5.21875 122.719 5.375C122.719 8.09375 122.703 10.7969 122.672 13.4844C122.641 16.6719 122.609 19.9062 122.578 23.1875C122.484 32 122.438 38.5 122.438 42.6875C126.344 42.6875 129.219 42.5938 131.062 42.4062C133.062 42.1875 134.312 42.2812 134.812 42.6875C135.344 43.0938 135.609 43.6406 135.609 44.3281C135.609 46.0469 134 46.875 130.781 46.8125C130.125 46.7812 129.531 46.7656 129 46.7656L125.203 46.7188H122.438V51.2656Z" fill="#FAFAFA"/>
</svg>
