<svg width="238" height="115" viewBox="0 0 238 115" fill="none" xmlns="http://www.w3.org/2000/svg">
<path d="M32.785 23.5412L39.8776 31.147L5.20303 67.0026C0.474658 71.8919 0.474586 56.9522 1.65675 55.7298L32.785 23.5412Z" fill="#4ADE80"/>
<path d="M8.88062 69.7189L17.812 61.0266V91.9928L45.1313 91.9928V101.5H20.7015C11.7702 101.5 8.88062 96.6106 8.88062 90.0914V69.7189Z" fill="#4ADE80"/>
<path d="M39.0895 19.7383C40.1403 21.9114 42.7671 25.7143 45.1313 25.7143V17.022C45.1313 17.022 44.0806 11.861 41.7164 14.034C39.3522 16.207 38.0388 17.5652 39.0895 19.7383Z" fill="#4ADE80"/>
<path d="M32.785 23.5412L39.8776 31.147L5.20303 67.0026C0.474658 71.8919 0.474586 56.9522 1.65675 55.7298L32.785 23.5412Z" stroke="#4ADE80"/>
<path d="M8.88062 69.7189L17.812 61.0266V91.9928L45.1313 91.9928V101.5H20.7015C11.7702 101.5 8.88062 96.6106 8.88062 90.0914V69.7189Z" stroke="#4ADE80"/>
<path d="M39.0895 19.7383C40.1403 21.9114 42.7671 25.7143 45.1313 25.7143V17.022C45.1313 17.022 44.0806 11.861 41.7164 14.034C39.3522 16.207 38.0388 17.5652 39.0895 19.7383Z" stroke="#4ADE80"/>
<path d="M57.215 23.5412L50.1224 31.147L84.797 67.0026C89.5253 71.8919 89.5254 56.9522 88.3433 55.7298L57.215 23.5412Z" fill="#4ADE80"/>
<path d="M81.1194 69.7189L72.188 61.0266V91.9928L44.8687 91.9928V101.5H69.2985C78.2298 101.5 81.1194 96.6106 81.1194 90.0914V69.7189Z" fill="#4ADE80"/>
<path d="M50.9105 19.7383C49.8597 21.9114 47.2329 25.7143 44.8687 25.7143V17.022C44.8687 17.022 45.9194 11.861 48.2836 14.034C50.6478 16.207 51.9612 17.5652 50.9105 19.7383Z" fill="#4ADE80"/>
<path d="M57.215 23.5412L50.1224 31.147L84.797 67.0026C89.5253 71.8919 89.5254 56.9522 88.3433 55.7298L57.215 23.5412Z" stroke="#4ADE80"/>
<path d="M81.1194 69.7189L72.188 61.0266V91.9928L44.8687 91.9928V101.5H69.2985C78.2298 101.5 81.1194 96.6106 81.1194 90.0914V69.7189Z" stroke="#4ADE80"/>
<path d="M50.9105 19.7383C49.8597 21.9114 47.2329 25.7143 44.8687 25.7143V17.022C44.8687 17.022 45.9194 11.861 48.2836 14.034C50.6478 16.207 51.9612 17.5652 50.9105 19.7383Z" stroke="#4ADE80"/>
<path d="M95.375 68.4844C96.4688 68.4844 97.1562 68.9062 97.4375 69.75C97.7188 70.5938 97.8594 71.9844 97.8594 73.9219C97.8594 75.8594 98.125 77.6719 98.6562 79.3594C99.1875 81.0469 99.9219 82.4688 100.859 83.625C102.766 85.9375 105.406 87.0938 108.781 87.0938C112.156 87.0938 114.844 85.8594 116.844 83.3906C118.844 80.8906 119.844 77.3125 119.844 72.6562C119.844 66.4375 117.203 60.9062 111.922 56.0625C110.422 54.6875 108.875 53.3281 107.281 51.9844C105.719 50.6406 104.188 49.25 102.688 47.8125C101.188 46.375 99.8438 44.7812 98.6562 43.0312C96.0625 39.1875 94.7656 34.8125 94.7656 29.9062C94.7656 24.875 96.25 20.8125 99.2188 17.7188C102.156 14.6563 105.844 13.125 110.281 13.125C114.094 13.125 117.219 14.4062 119.656 16.9688C122.375 19.9063 123.625 23.9687 123.406 29.1562C123.375 29.4062 123.359 29.6719 123.359 29.9531C123.391 30.2344 123.359 30.7656 123.266 31.5469C123.203 32.3281 122.875 33.0312 122.281 33.6562C121.719 34.25 121.094 34.5469 120.406 34.5469C119.75 34.5469 119.188 34.25 118.719 33.6562C118.25 33.0312 118.094 32.2188 118.25 31.2188C118.656 28.9375 118.859 27.2188 118.859 26.0625C118.859 24.875 118.641 23.75 118.203 22.6875C117.797 21.625 117.203 20.6875 116.422 19.875C114.734 18.1562 112.547 17.2969 109.859 17.2969C106.891 17.2969 104.469 18.3125 102.594 20.3438C100.531 22.5938 99.5 25.3594 99.5 28.6406C99.5 31.9219 99.8594 34.5781 100.578 36.6094C101.297 38.6094 102.234 40.4219 103.391 42.0469C104.578 43.6719 105.922 45.1562 107.422 46.5C108.922 47.8438 110.438 49.1719 111.969 50.4844C113.531 51.7969 115.062 53.1562 116.562 54.5625C118.062 55.9375 119.406 57.4688 120.594 59.1562C123.188 62.9688 124.484 67.3594 124.484 72.3281C124.484 78.1406 122.984 82.7812 119.984 86.25C117.016 89.6875 113.047 91.4062 108.078 91.4062C103.453 91.4062 99.6875 89.625 96.7812 86.0625C94.0312 82.7188 92.6562 78.9531 92.6562 74.7656C92.6562 70.5781 93.5625 68.4844 95.375 68.4844ZM151.25 14.0156C152 14.0156 152.688 14.3281 153.312 14.9531C153.938 15.5781 154.422 16.8906 154.766 18.8906C155.141 20.8594 155.688 23.6875 156.406 27.375C157.156 31.0625 157.984 35 158.891 39.1875C159.797 43.375 160.75 47.7031 161.75 52.1719C162.75 56.6094 163.75 60.9219 164.75 65.1094C167.156 74.9219 169.031 82.0938 170.375 86.625C170.688 87.7812 170.594 88.7031 170.094 89.3906C169.625 90.0781 169.094 90.4219 168.5 90.4219C167.906 90.4219 167.359 90.25 166.859 89.9062C166.391 89.5625 165.969 88.5469 165.594 86.8594C165.219 85.1719 164.609 82.4375 163.766 78.6562C162.922 74.875 162.016 70.8125 161.047 66.4688C161.016 66.2812 160.984 66.1094 160.953 65.9531C158.828 65.8594 155.828 65.8125 151.953 65.8125C147.391 65.8125 143.906 65.875 141.5 66C141.469 66.1875 141.438 66.375 141.406 66.5625C139.5 75.75 138.094 82.8594 137.188 87.8906C136.875 89.4844 136.047 90.2812 134.703 90.2812C133.297 90.2812 132.438 89.5938 132.125 88.2188C132.031 87.8125 132.125 87.1719 132.406 86.2969C132.688 85.4219 133.094 83.9219 133.625 81.7969C134.188 79.6406 134.781 77.1875 135.406 74.4375C136.062 71.6562 136.75 68.625 137.469 65.3438C138.188 62.0625 138.922 58.6875 139.672 55.2188C140.422 51.75 141.172 48.2656 141.922 44.7656C142.672 41.2344 143.391 37.8281 144.078 34.5469C144.766 31.2656 145.406 28.1875 146 25.3125C146.625 22.4375 147.125 20.1562 147.5 18.4688C148.094 15.5 149.344 14.0156 151.25 14.0156ZM142.391 61.6406C144.766 61.7656 147.969 61.8281 152 61.8281C155.344 61.8281 158.016 61.7812 160.016 61.6875C159.359 58.8438 158.703 55.9219 158.047 52.9219C157.016 48.2656 156.031 43.75 155.094 39.375C153.531 32.2188 152.188 25.9375 151.062 20.5312C150.344 24.125 149.312 29.0156 147.969 35.2031C146.219 43.4531 144.891 49.7344 143.984 54.0469C143.453 56.6406 142.922 59.1719 142.391 61.6406ZM181.766 69.0469L181.719 46.5938C181.719 36.0938 181.344 26.125 180.594 16.6875C180.5 15.2812 180.953 14.375 181.953 13.9688C182.516 13.7188 183.172 13.6562 183.922 13.7812C185.234 14 186.828 14.1094 188.703 14.1094C190.578 14.1094 191.938 14.1094 192.781 14.1094C193.656 14.0781 194.531 14.0469 195.406 14.0156C197.594 13.9219 199.078 13.8281 199.859 13.7344C200.672 13.6406 201.281 13.6562 201.688 13.7812C202.125 13.9063 202.5 14.0938 202.812 14.3438C203.438 14.9062 203.75 15.5469 203.75 16.2656C203.75 16.9531 203.469 17.5312 202.906 18C202.344 18.4688 201.562 18.6875 200.562 18.6562C199.594 18.5938 198.516 18.5312 197.328 18.4688C196.141 18.375 194.859 18.3125 193.484 18.2812C190.609 18.1875 188.172 18.2031 186.172 18.3281V26.4375C186.172 29.625 186.156 32.875 186.125 36.1875C186.094 45.0312 186.078 51.5312 186.078 55.6875C190.359 55.6875 193.719 55.5625 196.156 55.3125C198.75 55.0312 200.047 55.7031 200.047 57.3281C200.047 58.8906 198.25 59.6875 194.656 59.7188C193.75 59.75 193.031 59.7656 192.5 59.7656L188.75 59.7188H186.078L186.5 87.1406C186.5 87.9531 186.281 88.6406 185.844 89.2031C185.438 89.7344 184.984 90 184.484 90C183.984 90 183.578 89.9688 183.266 89.9062C182.953 89.8125 182.656 89.6562 182.375 89.4375C181.719 88.875 181.422 88.1094 181.484 87.1406C181.672 83.5469 181.766 77.5156 181.766 69.0469ZM214.438 64.2656L214.531 80.9062C214.531 82.4062 214.531 83.6875 214.531 84.75C214.562 85.2188 214.578 85.625 214.578 85.9688C222.453 85.9688 227.688 85.8438 230.281 85.5938C232.969 85.3125 234.531 85.2344 234.969 85.3594C235.406 85.4844 235.781 85.6875 236.094 85.9688C236.719 86.5312 237.031 87.1562 237.031 87.8438C237.031 88.5 236.734 89.0781 236.141 89.5781C235.547 90.0469 234.719 90.25 233.656 90.1875C228.531 89.7812 223.906 89.7188 219.781 90C215.656 90.25 213.344 90.4062 212.844 90.4688C212.344 90.5625 211.891 90.5625 211.484 90.4688C211.109 90.4062 210.766 90.25 210.453 90C209.734 89.4688 209.406 88.6875 209.469 87.6562C209.938 78.625 210.172 68.6406 210.172 57.7031C210.172 46.7344 210.172 39.8438 210.172 37.0312C210.203 34.1875 210.219 31.5938 210.219 29.25C210.156 24.2188 210.047 20.6719 209.891 18.6094C209.734 16.5156 209.766 15.2656 209.984 14.8594C210.234 14.4531 210.531 14.1562 210.875 13.9688C211.344 13.75 211.938 13.7031 212.656 13.8281C213.969 14.0469 215.703 14.1562 217.859 14.1562C222.016 14.1562 224.844 14.0781 226.344 13.9219C227.875 13.7344 228.859 13.7188 229.297 13.875C229.734 14 230.094 14.1875 230.375 14.4375C231 14.9375 231.312 15.5469 231.312 16.2656C231.312 16.9844 231.031 17.5781 230.469 18.0469C229.906 18.5156 229.141 18.7344 228.172 18.7031C227.203 18.6406 226.172 18.5781 225.078 18.5156C223.984 18.4219 222.812 18.3437 221.562 18.2812C218.938 18.1875 216.656 18.2188 214.719 18.375C214.719 21.0938 214.703 23.7969 214.672 26.4844C214.641 29.6719 214.609 32.9062 214.578 36.1875C214.484 45 214.438 51.5 214.438 55.6875C218.344 55.6875 221.219 55.5938 223.062 55.4062C225.062 55.1875 226.312 55.2812 226.812 55.6875C227.344 56.0938 227.609 56.6406 227.609 57.3281C227.609 59.0469 226 59.875 222.781 59.8125C222.125 59.7812 221.531 59.7656 221 59.7656L217.203 59.7188H214.438V64.2656Z" fill="#FAFAFA"/>
</svg>
